<svg id="Capa_1" enable-background="new 0 0 512 512" height="512" viewBox="0 0 512 512" width="512" xmlns="http://www.w3.org/2000/svg"><g><path d="m142.284 57.131-18.413-25.312c-4.878-6.694-3.398-16.069 3.311-20.947 6.665-4.849 16.069-3.413 20.947 3.311l18.413 25.313c4.878 6.694 3.398 16.069-3.311 20.947-6.675 4.867-16.083 3.401-20.947-3.312z" fill="#465166"/><path d="m348.769 60.442c-6.709-4.878-8.188-14.253-3.311-20.947l18.413-25.313c4.849-6.724 14.268-8.174 20.947-3.311 6.709 4.878 8.188 14.253 3.311 20.947l-18.413 25.312c-4.868 6.72-14.277 8.177-20.947 3.312z" fill="#2d384d"/><path d="m28.652 135.925-24.858-27.964c-5.508-6.182-4.951-15.674 1.245-21.167 6.152-5.522 15.659-4.966 21.167 1.245l25.858 27.964c5.508 6.182 3.951 15.674-2.245 21.167-6.164 5.501-15.664 4.966-21.167-1.245z" fill="#465166"/><path d="m462.181 137.17c-6.196-5.493-6.753-14.985-1.245-21.167l24.858-27.964c5.479-6.211 14.971-6.768 21.167-1.245 6.196 5.493 6.753 14.985 1.245 21.167l-24.858 27.964c-5.501 6.209-15.002 6.747-21.167 1.245z" fill="#2d384d"/><path d="m410.482 83.088c-17.255-36.357-53.92-60.088-94.482-60.088-21.431 0-42.319 6.768-60 19.233-17.681-12.465-38.569-19.233-60-19.233-40.562 0-77.227 23.73-94.482 60.088-55.826 2.373-101.518 48.516-101.518 104.913 0 53.013 40.492 96.973 91.586 104.019 3.721 43.843 24.829 83.979 59.414 112.559v84.421c0 8.291 6.709 15 15 15h90 90c8.291 0 15-6.709 15-15v-84.423c34.585-28.579 55.693-68.716 59.414-112.559 51.094-7.045 91.586-51.005 91.586-104.017 0-56.397-45.692-102.54-101.518-104.913z" fill="#656e80"/><path d="m361 489v-84.423c34.585-28.579 55.693-68.716 59.414-112.559 51.094-7.045 91.586-51.005 91.586-104.017 0-56.396-45.692-102.539-101.518-104.912-17.255-36.358-53.92-60.089-94.482-60.089-21.431 0-42.319 6.768-60 19.233v461.767h90c8.291 0 15-6.708 15-15z" fill="#465166"/><path d="m106 233.001c-24.814 0-45-20.186-45-45s20.186-45 45-45 45 20.186 45 45-20.186 45-45 45z" fill="#ffd9b3"/><path d="m406 233.001c-24.814 0-45-20.186-45-45s20.186-45 45-45 45 20.186 45 45-20.186 45-45 45z" fill="#fb9"/><path d="m196 173.001c-24.814 0-45-20.186-45-45s20.186-45 45-45 45 20.186 45 45-20.186 45-45 45z" fill="#ffd9b3"/><path d="m316 173.001c-24.814 0-45-20.186-45-45s20.186-45 45-45 45 20.186 45 45-20.186 45-45 45z" fill="#fb9"/><path d="m330.678 256.042c-3.516-38.101-35.669-68.042-74.678-68.042s-71.162 29.941-74.678 68.042c-18.486 10.533-30.322 30.264-30.322 51.958 0 33.091 26.909 60 60 60h45 45c33.091 0 60-26.909 60-60 0-21.694-11.836-41.425-30.322-51.958z" fill="#ffd9b3"/><path d="m361 308c0-21.694-11.836-41.426-30.322-51.958-3.516-38.101-35.669-68.042-74.678-68.042v180h45c33.091 0 60-26.909 60-60z" fill="#fb9"/></g></svg>